<svg width="532" height="788" xmlns="http://www.w3.org/2000/svg"><path d="M508.41 134.684c-58.195 120.612-96.12 151.298-210.706 237.204-18.77 14.071-18.77 26.132 0 40.204 115.63 86.689 152.51 120.612 206.692 241.224C536.691 725.207 550.551 788 474.296 788H60.91c-77.549 0-62.6-76.13-42.14-134.684 42.14-120.612 101.6-159 214.719-241.224 19.358-14.072 19.358-26.133 0-40.204C121.45 290.449 84.99 255.296 18.769 134.684-8.144 85.665-15.345 0 60.91 0h413.386c75.972 0 65.229 70.197 34.114 134.684z" fill="#EBEBEB" fill-rule="evenodd" fill-opacity=".495"/></svg>