<svg width="474" height="594" xmlns="http://www.w3.org/2000/svg"><g fill="#FFB75C" fill-rule="evenodd"><path d="M265.181 397.495c102.949 25.235 102.949 25.235 185.576 75.68C479.753 537.67 492.197 594 423.732 594H52.58c-69.627 0-56.204-68.296-37.836-120.824 92.284-50.446 92.284-50.446 192.783-75.68 18.651-4.684 38.946-4.587 57.654 0z"/><path d="M268.514 176.196C363.428 103.642 363.428 103.642 442.039 0 277.169 12.062 188.797 12.062 32.136 0c82.241 103.642 82.347 104.536 178.723 176.196 26.577 19.761 31.167 20.247 57.655 0z"/><path d="M230.98 189.977c-5.755-2.015 20.142-2.015 14.387 0-5.048 1.768-6.394 153.143-4.35 196.001.286 6.003 14.06 10.052 14.06 10.052-4.018 2.01-28.12 2.01-34.145 0 0 0 12.051-4.021 12.256-9.822 1.05-29.762 3.254-194.318-2.209-196.23z"/></g></svg>