<svg viewBox="0 0 22 22" xmlns="http://www.w3.org/2000/svg"><g fill="none" fill-rule="evenodd"><path stroke="#000" stroke-width="1.5" stroke-linecap="round" d="M4.75 3.75L17.25 3.75"/><path stroke="#000" stroke-width="1.5" stroke-linecap="round" d="M4.75 18.25L17.25 18.25"/><path d="M5.5 4v2c.5 1.5 1.5 3 4 4v2c-2.5 1-3.5 2.5-4 4v2" stroke-opacity=".397" stroke="#000"/><path d="M16.5 4v2c-.5 1.5-1.5 3-4 4v2c2.5 1 3.5 2.5 4 4v2" stroke-opacity=".397" stroke="#000"/><path d="M7.8 14.931c3.2-1.241 3.2-1.241 6.4 0 .8.414.8.828.8 1.241V17H7v-.828c0-.413 0-.827.8-1.241zM7.5 7h7C14 8 12 9 11 9S8 8 7.5 7z" fill="#000"/><path stroke="#000" stroke-linecap="square" d="M11 8.5L11 16.5"/></g></svg>